<?xml version="1.0" encoding="UTF-8"?><svg id="Layer_1" xmlns="http://www.w3.org/2000/svg" viewBox="0 0 133.15 153.75"><g id="_3"><polygon points="33.28 115.31 33.28 153.75 0 134.52 0 96.09 33.28 115.31"/><polygon points="66.57 96.09 66.57 96.1 66.56 96.09 66.57 96.09"/><polygon points="66.57 96.09 66.57 96.1 66.56 96.09 66.57 96.09"/><polygon points="99.86 76.87 99.86 115.31 66.57 134.53 66.56 134.53 33.28 115.31 33.28 76.87 66.56 96.09 66.57 96.1 66.58 96.09 99.86 76.87"/><polygon points="133.15 19.22 133.15 57.66 99.86 76.87 99.86 38.44 99.85 38.44 66.57 57.66 33.28 38.44 33.28 76.87 0 57.66 0 19.22 33.28 0 66.57 19.22 66.57 19.22 99.86 0 133.15 19.22"/></g></svg>