<?xml version="1.0" encoding="UTF-8"?><svg id="Layer_1" xmlns="http://www.w3.org/2000/svg" viewBox="0 0 120.49 139.14"><g id="_4"><polygon points="30.12 104.35 30.12 139.14 0 121.74 0 86.96 30.12 104.35" fill="#fff"/><polygon points="60.24 86.96 60.24 86.96 60.24 86.96 60.24 86.96" fill="#fff"/><polygon points="60.24 86.96 60.24 86.96 60.24 86.96 60.24 86.96" fill="#fff"/><polygon points="90.37 69.57 90.37 104.35 60.24 121.75 60.24 121.75 30.12 104.35 30.12 69.57 60.24 86.96 60.24 86.96 60.25 86.96 90.37 69.57" fill="#fff"/><polygon points="120.49 17.39 120.49 52.18 90.37 69.57 90.37 34.79 90.37 34.79 60.24 52.18 30.12 34.79 30.12 69.57 0 52.18 0 17.4 30.12 0 60.24 17.4 60.24 17.39 90.37 0 120.49 17.39" fill="#fff"/></g></svg>