<?xml version="1.0" encoding="UTF-8"?><svg id="Layer_1" xmlns="http://www.w3.org/2000/svg" viewBox="0 0 118.9 137.3"><g id="_4"><polygon points="29.72 102.97 29.72 137.3 0 120.13 0 85.81 29.72 102.97" fill="#e03146"/><polygon points="59.45 85.81 59.45 85.82 59.44 85.81 59.45 85.81" fill="#e03146"/><polygon points="59.45 85.81 59.45 85.82 59.44 85.81 59.45 85.81" fill="#e03146"/><polygon points="89.18 68.65 89.18 102.97 59.45 120.14 59.44 120.14 29.72 102.97 29.72 68.65 59.44 85.81 59.45 85.82 59.45 85.81 89.18 68.65" fill="#e03146"/><polygon points="118.9 17.16 118.9 51.49 89.18 68.65 89.18 34.33 89.17 34.33 59.45 51.49 29.72 34.33 29.72 68.65 0 51.49 0 17.17 29.72 0 59.45 17.17 59.45 17.16 89.18 0 118.9 17.16" fill="#e03146"/></g></svg>